<?xml version="1.0" standalone="no"?>
<!DOCTYPE svg PUBLIC "-//W3C//DTD SVG 20010904//EN"
 "http://www.w3.org/TR/2001/REC-SVG-20010904/DTD/svg10.dtd">
<svg version="1.0" xmlns="http://www.w3.org/2000/svg"
 width="281.000000pt" height="281.000000pt" viewBox="0 0 281.000000 281.000000"
 preserveAspectRatio="xMidYMid meet">

<g transform="translate(0.000000,281.000000) scale(0.100000,-0.100000)"
fill="#000000" stroke="none">
<path d="M1145 2781 c-163 -30 -313 -87 -467 -177 l-78 -46 0 -1153 0 -1152
86 -52 c47 -28 89 -51 92 -51 4 0 5 523 4 1162 -4 1088 0 1321 19 1243 3 -16
7 -54 8 -82 1 -50 11 -67 26 -43 14 23 195 104 284 127 178 46 431 43 628 -7
107 -28 284 -116 365 -184 176 -146 281 -359 309 -625 17 -164 6 -713 -16
-811 -97 -430 -496 -731 -970 -731 -213 -1 -358 31 -515 111 -53 28 -99 50
-103 50 -4 0 -7 -51 -7 -114 l0 -114 48 -20 c79 -34 198 -70 290 -89 121 -24
394 -24 515 0 288 58 526 185 733 391 203 204 322 425 386 714 29 130 31 403
5 535 -55 271 -179 513 -365 708 -115 121 -233 208 -377 279 -226 111 -347
140 -610 146 -155 3 -208 0 -290 -15z"/>
<path d="M503 2482 c-243 -203 -416 -497 -480 -819 -24 -122 -24 -394 0 -516
58 -287 185 -526 391 -733 61 -61 121 -116 133 -123 l22 -11 1 1125 c0 619 -2
1125 -4 1125 -3 0 -31 -22 -63 -48z"/>
</g>
</svg>
